:SAMPLES-PER-SECOND 30
:FULLY-SPECIFIED
:DEGREES
514
root  -49.1487 32.8435 36.7965 -174.357 64.5708 170.019
RightUpLeg  -33.0222 -35.5966 4.64529
RightLeg  46.9562 -6.15072 -5.79674
RightFoot  -15.4092 0.276023 2.63344
RightToes  -24.2193 -0.106207 -0.20985
Spine  2.51737 3.49019 2.71643
Spine1  5.23218 7.9313 5.06417
HEad  -74.3513 17.9184 -8.50799
LeftShoulder1  -1.94126e-019 -3.10601e-018 -2.51263e-017
LeftArm  -7.62016 26.6705 -82.7724
LeftForeArm  24.5321 -35.4019 -6.47168
LeftHand  -0.511647 -2.63352 7.62318
RightShoulder  -4.96962e-017 0 -2.36833e-017
RightArm  0.736311 -2.77237 62.5982
RightForeArm  68.1804 10.6872 1.5322
RightHand  -0.636958 2.42091 -9.65798
LeftUpLeg  -41.1405 1.95478 -9.46648
LeftLeg  28.1641 15.6506 6.9991
LeftFoot  7.14925 -0.14738 2.52045
LeftToes  -8.29179 2.32378e-006 -5.43956e-008
515
root  -49.0368 32.6543 36.8581 -173.956 63.0695 170.644
RightUpLeg  -35.6423 -35.5214 4.63141
RightLeg  52.95 -6.59228 -7.6471
RightFoot  -12.1211 0.214579 2.62877
RightToes  -32.7798 -0.163524 -0.270814
Spine  2.69089 3.88792 2.61677
Spine1  5.59363 9.01896 4.62288
HEad  -74.1942 17.0152 -8.28661
LeftShoulder1  -1.94126e-019 -3.10601e-018 -2.51263e-017
LeftArm  -6.95369 23.7656 -83.6836
LeftForeArm  27.8021 -28.3052 -4.55499
LeftHand  -0.442398 -4.00066 5.74069
RightShoulder  -4.96962e-017 0 -2.36833e-017
RightArm  -25.2588 2.4248 64.6199
RightForeArm  77.6004 6.50346 1.05369
RightHand  -0.550969 -1.6874 -17.1294
LeftUpLeg  -42.8594 4.80067 -10.8865
LeftLeg  31.3624 11.4708 5.95099
LeftFoot  5.30331 -0.0660936 1.58859
LeftToes  -4.07853 2.32378e-006 -5.43956e-008
516
root  -48.9835 32.6413 36.9706 -173.203 62.281 171.456
RightUpLeg  -38.3553 -33.2639 4.61521
RightLeg  58.1932 -7.33675 -10.226
RightFoot  -6.12447 0.0719834 1.98755
RightToes  -43.7754 -0.249324 -0.335441
Spine  2.73456 4.35338 2.5048
Spine1  5.71397 10.1266 4.32559
HEad  -73.9594 16.1553 -8.69224
LeftShoulder1  -1.94126e-019 -3.10601e-018 -2.51263e-017
LeftArm  -9.1045 21.6025 -85.1214
LeftForeArm  30.4598 -22.5869 -3.36377
LeftHand  -0.386312 -3.8345 5.12816
RightShoulder  -4.96962e-017 0 -2.36833e-017
RightArm  -34.9356 6.83597 65.7553
RightForeArm  76.4713 4.5278 0.723608
RightHand  0.213016 -6.38707 -25.1829
LeftUpLeg  -42.9517 8.16006 -12.1423
LeftLeg  30.7248 7.93396 4.02583
LeftFoot  4.66631 -0.039572 1.13277
LeftToes  -2.33474 2.32378e-006 -5.43956e-008
517
root  -48.7455 32.7605 37.2168 -171.966 61.4225 173.435
RightUpLeg  -38.8268 -30.6653 4.8018
RightLeg  60.9104 -7.72774 -11.8814
RightFoot  -0.488763 -0.000994809 0.878837
RightToes  -50.7026 -0.309114 -0.367267
Spine  2.81455 4.52776 2.57737
Spine1  5.9539 10.6347 4.40464
HEad  -73.2923 16.0906 -8.58204
LeftShoulder1  -1.94126e-019 -3.10601e-018 -2.51263e-017
LeftArm  -11.7467 20.8306 -86.0916
LeftForeArm  29.0857 -19.3313 -3.07781
LeftHand  -0.402832 -1.22424 7.22003
RightShoulder  -4.96962e-017 0 -2.36833e-017
RightArm  -25.7469 10.2729 67.042
RightForeArm  72.8487 5.4536 0.897184
RightHand  0.2115 -6.38064 -25.1723
LeftUpLeg  -42.0371 8.96058 -11.0509
LeftLeg  30.0318 6.70907 3.30731
LeftFoot  5.14504 -0.0428799 1.11592
LeftToes  -5.29101 2.32378e-006 -5.43956e-008
518
root  -48.4481 32.9621 37.4715 -171.725 59.7754 174.6
RightUpLeg  -37.4452 -29.056 4.27758
RightLeg  61.4887 -7.2699 -11.4525
RightFoot  2.97066 0.0111925 0.0964627
RightToes  -53.9456 -0.338329 -0.379634
Spine  2.79437 4.53166 2.47721
Spine1  5.92838 10.6863 4.25656
HEad  -72.4441 15.2585 -7.44352
LeftShoulder1  -1.94126e-019 -3.10601e-018 -2.51263e-017
LeftArm  -11.613 20.6401 -86.0847
LeftForeArm  25.8017 -18.1744 -3.00458
LeftHand  -0.402918 -0.470295 8.08336
RightShoulder  -4.96962e-017 0 -2.36833e-017
RightArm  -9.42259 11.2433 67.4039
RightForeArm  67.3021 10.379 1.53929
RightHand  -0.341016 -3.22431 -17.8365
LeftUpLeg  -40.0173 8.75094 -9.88377
LeftLeg  28.103 5.80935 2.62725
LeftFoot  6.48718 -0.0579505 1.18408
LeftToes  -12.0702 2.32378e-006 -5.43956e-008
519
root  -48.2421 33.2117 37.6415 -171.685 57.4053 175.18
RightUpLeg  -35.2647 -28.3598 3.08851
RightLeg  60.6286 -5.35114 -8.24387
RightFoot  4.22894 0.020571 -0.0173551
RightToes  -53.4016 -0.333381 -0.377675
Spine  2.413 4.25406 2.17509
Spine1  5.10516 9.88374 3.98151
HEad  -71.4042 13.6135 -5.72061
LeftShoulder1  -1.94126e-019 -3.10601e-018 -2.51263e-017
LeftArm  -10.0526 21.6285 -85.5228
LeftForeArm  24.3538 -20.0698 -3.27287
LeftHand  -0.414999 -1.00553 7.67016
RightShoulder  -4.96962e-017 0 -2.36833e-017
RightArm  5.93688 10.7776 67.1486
RightForeArm  59.1334 16.7576 0.933268
RightHand  -0.533639 -0.407524 -12.4406
LeftUpLeg  -37.6249 7.33134 -9.02331
LeftLeg  24.843 5.41586 2.08874
LeftFoot  8.39697 -0.0817167 1.27467
LeftToes  -19.5728 2.32378e-006 -5.43956e-008
520
root  -48.0725 33.4474 37.7655 -171.825 54.5107 175.668
RightUpLeg  -31.8774 -28.0797 1.22432
RightLeg  58.8842 -2.1497 -3.17344
RightFoot  3.06407 0.00553795 0.300143
RightToes  -47.8998 -0.284462 -0.355263
Spine  1.91577 3.53579 1.8508
Spine1  4.02016 7.97025 3.80042
HEad  -70.5869 11.8862 -4.2588
LeftShoulder1  -1.94126e-019 -3.10601e-018 -2.51263e-017
LeftArm  -9.24216 23.0622 -84.8759
LeftForeArm  25.1461 -23.1944 -3.64752
LeftHand  -0.3764 -2.10588 6.02517
RightShoulder  -4.96962e-017 0 -2.36833e-017
RightArm  12.3156 10.0536 66.7535
RightForeArm  54.7026 22.7954 2.11978
RightHand  -0.513788 -0.014929 -11.1399
LeftUpLeg  -34.9677 5.23048 -8.25495
LeftLeg  21.1193 5.30978 1.66188
LeftFoot  10.6552 -0.113206 1.37546
LeftToes  -25.8721 2.32378e-006 -5.43956e-008
521
root  -47.8384 33.5753 38.0223 -172.317 52.3322 176.062
RightUpLeg  -27.625 -26.4654 -0.551508
RightLeg  56.2854 0.188727 0.174441
RightFoot  0.337398 -0.000405408 0.347519
RightToes  -42.7983 -0.241214 -0.330377
Spine  1.62831 3.22094 1.56178
Spine1  3.35639 6.94864 3.52246
HEad  -69.7883 10.0721 -3.1205
LeftShoulder1  -1.94126e-019 -3.10601e-018 -2.51263e-017
LeftArm  -7.26823 24.3834 -83.6064
LeftForeArm  25.5417 -27.6386 -4.52829
LeftHand  -0.37075 -2.52819 5.65096
RightShoulder  -4.96962e-017 0 -2.36833e-017
RightArm  13.9589 8.54759 66.6054
RightForeArm  49.6853 31.2199 4.06891
RightHand  -0.526165 -0.227473 -11.856
LeftUpLeg  -32.9347 5.07669 -7.79199
LeftLeg  18.7404 3.85004 1.03224
LeftFoot  12.066 -0.100158 1.1092
LeftToes  -30.283 2.32378e-006 -5.43956e-008
522
root  -47.6183 33.6048 38.3375 -173.043 50.2834 176.579
RightUpLeg  -23.0098 -24.5905 -1.8431
RightLeg  53.0376 -3.08373 -3.64338
RightFoot  -3.29898 0.000947054 0.632469
RightToes  -35.4292 -0.183038 -0.287874
Spine  1.62858 3.30285 1.45053
Spine1  3.34202 7.07354 3.35457
HEad  -69.7172 8.09211 -2.67487
LeftShoulder1  -1.94126e-019 -3.10601e-018 -2.51263e-017
LeftArm  -5.20227 24.5824 -82.6025
LeftForeArm  25.4338 -31.5487 -5.44339
LeftHand  -0.41832 -2.71997 6.21219
RightShoulder  -4.96962e-017 0 -2.36833e-017
RightArm  13.6358 7.26736 66.6521
RightForeArm  44.6507 37.8617 5.93879
RightHand  -0.454408 -0.840028 -11.5589
LeftUpLeg  -31.6301 4.84638 -7.07902
LeftLeg  18.1757 2.42169 0.623179
LeftFoot  12.8793 -0.0752605 0.828305
LeftToes  -34.6445 2.32378e-006 -5.43956e-008
523
root  -47.4211 33.5816 38.7288 -173.275 48.6333 177.802
RightUpLeg  -18.0741 -21.7074 -2.15683
RightLeg  47.8004 -9.94141 -9.53732
RightFoot  -6.6371 0.0799588 2.01426
RightToes  -24.0416 -0.105116 -0.208497
Spine  1.83045 3.47924 1.48233
Spine1  3.75709 7.40723 3.45229
HEad  -70.6149 6.57514 -2.81209
LeftShoulder1  -1.94126e-019 -3.10601e-018 -2.51263e-017
LeftArm  -4.35266 23.9033 -82.0581
LeftForeArm  25.6395 -34.5889 -6.19534
LeftHand  -0.429852 -2.69412 6.39591
RightShoulder  -4.96962e-017 0 -2.36833e-017
RightArm  12.4295 6.88685 67.5733
RightForeArm  41.4693 41.6574 7.19411
RightHand  -0.403671 -1.11938 -10.9037
LeftUpLeg  -31.4751 4.76155 -5.79694
LeftLeg  19.6066 1.09303 0.309
LeftFoot  12.9059 -0.0412575 0.526288
LeftToes  -36.2069 2.32378e-006 -5.43956e-008
524
root  -47.32 33.4764 39.2287 -173.342 47.7816 178.993
RightUpLeg  -13.4213 -17.6403 -1.9066
RightLeg  40.0689 -14.4251 -10.4155
RightFoot  -6.46476 0.101607 2.4589
RightToes  -34.1777 -0.173721 -0.279928
Spine  2.13054 3.74012 1.5694
Spine1  4.38549 7.91843 3.64773
HEad  -73.0121 4.95087 -4.07716
LeftShoulder1  -1.94126e-019 -3.10601e-018 -2.51263e-017
LeftArm  -4.07243 22.7177 -81.9997
LeftForeArm  24.4848 -36.713 -6.83728
LeftHand  -0.50444 -2.15904 7.95688
RightShoulder  -4.96962e-017 0 -2.36833e-017
RightArm  12.4424 7.65168 69.0416
RightForeArm  40.1614 43.1079 7.72189
RightHand  -0.369917 -1.5612 -11.0849
LeftUpLeg  -32.3834 4.43875 -4.31931
LeftLeg  22.1673 0.618333 0.203464
LeftFoot  12.8925 -0.0296981 0.424361
LeftToes  -35.2331 2.32378e-006 -5.43956e-008
525
root  -47.3646 33.2306 39.7783 -173.905 47.1894 179.117
RightUpLeg  -11.0968 -16.9049 -1.54123
RightLeg  36.782 -13.5106 -8.66969
RightFoot  -11.351 0.295255 3.61064
RightToes  -28.8899 -0.136352 -0.244177
Spine  2.42153 3.83683 1.5238
Spine1  4.97629 8.10847 3.56349
HEad  -74.7489 3.42288 -5.58067
LeftShoulder1  -1.94126e-019 -3.10601e-018 -2.51263e-017
LeftArm  -4.4683 21.0347 -82.1798
LeftForeArm  24.1029 -37.3488 -7.04369
LeftHand  -0.5235 -2.11168 8.29846
RightShoulder  -4.96962e-017 0 -2.36833e-017
RightArm  14.3389 9.45158 70.9797
RightForeArm  40.086 42.5354 7.54739
RightHand  -0.319404 -2.43655 -12.2632
LeftUpLeg  -33.9598 3.17828 -3.379
LeftLeg  25.011 1.09567 0.424083
LeftFoot  12.7186 -0.0427115 0.544751
LeftToes  -33.425 2.32378e-006 -5.43956e-008
526
root  -47.456 33.0219 40.3518 -173.902 47.3803 179.726
RightUpLeg  -9.92665 -18.8423 -0.656496
RightLeg  34.0349 -12.2902 -7.11368
RightFoot  -15.6117 0.497918 4.25714
RightToes  -22.0095 -0.0929421 -0.19278
Spine  2.81982 3.99577 1.6178
Spine1  5.79436 8.43437 3.75555
HEad  -76.3467 1.25678 -7.3927
LeftShoulder1  -1.94126e-019 -3.10601e-018 -2.51263e-017
LeftArm  -5.14721 18.6992 -83.1885
LeftForeArm  22.733 -35.8624 -6.7127
LeftHand  -0.537229 -1.38815 9.36211
RightShoulder  -4.96962e-017 0 -2.36833e-017
RightArm  17.884 11.6919 72.7876
RightForeArm  40.1891 40.5451 6.93761
RightHand  -0.423766 -1.42172 -12.2917
LeftUpLeg  -35.123 2.42976 -2.14871
LeftLeg  26.5896 1.98388 0.834142
LeftFoot  12.9041 -0.0701156 0.781519
LeftToes  -32.4544 2.32378e-006 -5.43956e-008
527
root  -47.6651 32.9536 40.9519 -172.806 48.601 -179.186
RightUpLeg  -11.5001 -21.1452 0.30756
RightLeg  34.4203 -8.97873 -5.31389
RightFoot  -16.054 0.375618 3.26703
RightToes  -22.775 -0.0974624 -0.198751
Spine  3.07808 4.1084 1.81374
Spine1  6.34371 8.65962 4.15636
HEad  -77.0735 0.902399 -8.25034
LeftShoulder1  -1.94126e-019 -3.10601e-018 -2.51263e-017
LeftArm  -6.56252 16.4585 -84.8267
LeftForeArm  21.875 -32.6046 -5.90734
LeftHand  -0.538076 -1.00664 9.90489
RightShoulder  -4.96962e-017 0 -2.36833e-017
RightArm  21.3364 14.0112 75.4451
RightForeArm  42.3072 36.2343 5.63623
RightHand  -0.417959 -0.978723 -10.9473
LeftUpLeg  -36.0014 2.27999 -0.538363
LeftLeg  26.2062 3.16259 1.30677
LeftFoot  13.6004 -0.113978 1.11733
LeftToes  -33.5805 2.32378e-006 -5.43956e-008
528
root  -47.9314 33.0138 41.5226 -171.88 50.6748 -179.351
RightUpLeg  -14.8779 -22.0047 1.08036
RightLeg  36.1687 -6.81529 -4.33658
RightFoot  -15.6962 0.269581 2.5462
RightToes  -21.1906 -0.0881949 -0.186326
Spine  2.9115 4.09363 1.6425
Spine1  5.9938 8.64108 3.83382
HEad  -76.4716 1.57964 -8.09777
LeftShoulder1  -1.94126e-019 -3.10601e-018 -2.51263e-017
LeftArm  -6.57759 15.2465 -85.8299
LeftForeArm  19.8639 -29.1273 -5.17898
LeftHand  -0.550655 -0.350289 11.2345
RightShoulder  -4.96962e-017 0 -2.36833e-017
RightArm  24.9933 14.8968 78.9177
RightForeArm  46.5521 31.0468 4.17955
RightHand  -0.509748 0.837722 -9.61023
LeftUpLeg  -36.2561 2.48147 0.28423
LeftLeg  23.6561 5.33108 1.93065
LeftFoot  14.3298 -0.195491 1.71657
LeftToes  -35.3845 2.32378e-006 -5.43956e-008
